<svg width="18" height="18" viewBox="0 0 18 18" fill="none" xmlns="http://www.w3.org/2000/svg">
<path d="M7.85078 11.5055L6.3215 10.2615C6.12266 10.0998 6.0256 9.84397 6.0671 9.59103L6.07163 9.5634L6.08285 9.49504C6.13478 9.17854 6.40603 8.98335 6.6874 8.98342C6.82614 8.98106 6.96813 9.02968 7.09046 9.13884L8.05548 10L10.3854 6.28719L10.3986 6.2662C10.5025 6.10056 10.6843 6 10.8799 6C11.375 6 11.6823 6.53828 11.4307 6.96461L11.3841 7.04357L8.87238 11.2991C8.87238 11.2991 8.87237 11.2991 8.87237 11.2991L8.85696 11.3252C8.76816 11.4756 8.63147 11.5777 8.47907 11.6256C8.27226 11.6944 8.03961 11.6591 7.85078 11.5055Z" fill="white"/>
<path d="M16 9C16 9.49631 15.9483 9.98055 15.8501 10.4476M12.2098 2.77764C12.5688 2.96324 12.9098 3.179 13.2292 3.42157M15.5731 6.58733C15.434 6.20844 15.263 5.84492 15.0635 5.5M9.86215 2.05257C9.57963 2.01787 9.2919 2 9 2C5.13401 2 2 5.13401 2 9C2 12.866 5.13401 16 9 16C11.6259 16 13.9141 14.5541 15.1119 12.4151" stroke="white" stroke-width="1.5" stroke-linecap="round"/>
</svg>
