<svg width="18" height="18" viewBox="0 0 18 18" fill="none" xmlns="http://www.w3.org/2000/svg">
<path fill-rule="evenodd" clip-rule="evenodd" d="M8 17C12.4183 17 16 13.4183 16 9C16 4.58172 12.4183 1 8 1C3.58172 1 0 4.58172 0 9C0 13.4183 3.58172 17 8 17Z" fill="white"/>
<path d="M6.71459 12.3819L4.58225 10.8269C4.30819 10.627 4.17279 10.2879 4.23385 9.95425C4.35415 9.29691 5.13262 9.0061 5.65444 9.42355L7 10.5L10.2487 5.85899C10.4062 5.634 10.6636 5.5 10.9382 5.5C11.6082 5.5 12.0096 6.24484 11.6412 6.80446L8.13903 12.1238C7.82501 12.6008 7.17599 12.7184 6.71459 12.3819Z" fill="#1C1C1C"/>
</svg>
