<svg width="18" height="18" viewBox="0 0 18 18" fill="none" xmlns="http://www.w3.org/2000/svg">
<path fill-rule="evenodd" clip-rule="evenodd" d="M16.748 11C16.8522 10.595 16.9255 10.1775 16.9653 9.75036H1.03473C1.07446 10.1775 1.14779 10.595 1.25203 11H16.748ZM1.80423 12.5C3.10253 15.1642 5.83688 17 9 17C12.1631 17 14.8975 15.1642 16.1958 12.5H1.80423ZM16.748 7C16.8522 7.40502 16.9255 7.82246 16.9653 8.24965H1.03473C1.07446 7.82246 1.14779 7.40502 1.25203 7H16.748ZM1.80423 5.5C3.10253 2.83577 5.83688 1 9 1C12.1631 1 14.8975 2.83577 16.1958 5.5H1.80423Z" fill="white"/>
</svg>
