<svg width="16" height="16" viewBox="0 0 16 16" fill="none" xmlns="http://www.w3.org/2000/svg">
<path d="M8.33333 3.83333C8.33333 5.122 7.28866 6.16667 6 6.16667C4.71134 6.16667 3.66667 5.122 3.66667 3.83333C3.66667 2.54467 4.71134 1.5 6 1.5C7.28866 1.5 8.33333 2.54467 8.33333 3.83333Z" fill="white"/>
<path d="M6 12.5C6 12.1464 6.06884 11.8088 6.19384 11.5C6.58943 10.5227 7.54754 9.83333 8.66667 9.83333H9.97235H11.3333C12.8061 9.83333 14 11.0272 14 12.5C14 13.6046 13.1046 14.5 12 14.5H8C6.89543 14.5 6 13.6046 6 12.5Z" fill="white"/>
<path d="M12.3333 6.83333C12.3333 8.122 11.2887 9.16667 10 9.16667C9.99311 9.16667 9.98623 9.16663 9.97936 9.16657C8.70707 9.15555 7.67778 8.12626 7.66676 6.85398C7.6667 6.8471 7.66667 6.84022 7.66667 6.83333C7.66667 5.54467 8.71134 4.5 10 4.5C11.2887 4.5 12.3333 5.54467 12.3333 6.83333Z" fill="white"/>
<path fill-rule="evenodd" clip-rule="evenodd" d="M2 9.5C2 8.02724 3.19391 6.83333 4.66667 6.83333L5.33371 6.8395C6.25413 6.848 7.07881 7.47582 7.40365 8.33706C7.53852 8.69466 7.56397 8.90416 7.30146 9.16667C6.84541 9.62272 6.31271 9.60196 5.30491 11.0415C5.10853 11.322 4.79253 11.5 4.45011 11.5H4C2.89543 11.5 2 10.6046 2 9.5ZM6.19384 11.5H8C8.991 11.5 9.81366 10.7792 9.97235 9.83333H8.66667C7.54754 9.83333 6.58943 10.5227 6.19384 11.5Z" fill="white"/>
</svg>
