<svg width="18" height="18" viewBox="0 0 18 18" fill="none" xmlns="http://www.w3.org/2000/svg">
<path fill-rule="evenodd" clip-rule="evenodd" d="M8 17C12.4183 17 16 13.4183 16 9C16 4.58172 12.4183 1 8 1C3.58172 1 0 4.58172 0 9C0 13.4183 3.58172 17 8 17ZM4.35714 10.1429C4.98833 10.1429 5.5 9.63118 5.5 9C5.5 8.36882 4.98833 7.85714 4.35714 7.85714C3.72596 7.85714 3.21429 8.36882 3.21429 9C3.21429 9.63118 3.72596 10.1429 4.35714 10.1429ZM9.14286 9C9.14286 9.63118 8.63118 10.1429 8 10.1429C7.36882 10.1429 6.85714 9.63118 6.85714 9C6.85714 8.36882 7.36882 7.85714 8 7.85714C8.63118 7.85714 9.14286 8.36882 9.14286 9ZM11.6429 10.1429C12.274 10.1429 12.7857 9.63118 12.7857 9C12.7857 8.36882 12.274 7.85714 11.6429 7.85714C11.0117 7.85714 10.5 8.36882 10.5 9C10.5 9.63118 11.0117 10.1429 11.6429 10.1429Z" fill="white"/>
</svg>
