<svg width="40" height="40" viewBox="0 0 40 40" fill="none" xmlns="http://www.w3.org/2000/svg">
<g clip-path="url(#clip0_2030_102)">
<rect width="40" height="40" rx="15" fill="url(#paint0_linear_2030_102)"/>
<path d="M12.948 21.1875C12.9393 23.9704 12.7215 26.6753 12.4422 30.1023C12.401 30.6083 11.9782 31 11.4705 31C10.9617 31 10.5383 30.6072 10.4994 30.0999C9.93664 22.7581 9.75838 18.2582 10.447 11.1949C10.5132 10.5163 11.0863 10 11.7681 10C12.1503 10 12.5155 10.1653 12.7682 10.4521C16.8075 15.0375 19.5598 18.4154 22.8684 22.7745C24.0602 24.3447 26.598 23.4547 26.5607 21.4838C26.4948 18 26.5382 14.9447 26.7243 10.9316C26.7484 10.4107 27.1785 10 27.6999 10C28.1957 10 28.6135 10.3721 28.6703 10.8646C29.5034 18.0867 29.6918 22.5502 28.7303 29.8288C28.6416 30.4999 28.0664 31 27.3895 31C26.9955 31 26.6195 30.8276 26.3611 30.5301L26.3191 30.4816C22.7059 26.3205 20.0726 23.2879 17.2319 19.6206C15.9488 17.9641 12.9545 19.0922 12.948 21.1875Z" fill="white" stroke="white" stroke-width="3" stroke-linejoin="round"/>
</g>
<defs>
<linearGradient id="paint0_linear_2030_102" x1="-2.17391" y1="-1.95122" x2="50.3067" y2="42.2501" gradientUnits="userSpaceOnUse">
<stop stop-color="#A56EFF"/>
<stop offset="1" stop-color="#574EFF"/>
</linearGradient>
<clipPath id="clip0_2030_102">
<rect width="40" height="40" fill="white"/>
</clipPath>
</defs>
</svg>
